<svg xmlns="http://www.w3.org/2000/svg" viewBox="0 0 512 512" width="512" height="512">
  <defs>
    <radialGradient id="g" cx="50%" cy="60%" r="55%">
      <stop offset="0%" stop-color="#F3A63C" stop-opacity="0.40"/>
      <stop offset="70%" stop-color="#E0912A" stop-opacity="0.08"/>
      <stop offset="100%" stop-color="#E0912A" stop-opacity="0"/>
    </radialGradient>
  </defs>
  <circle cx="326" cy="256" r="180" fill="url(#g)"/>
  <rect x="80.0" y="398.7" width="80.0" height="37.3" rx="33.6" fill="#E0912A" fill-opacity="1.0"/>
    <rect x="80.0" y="334.1" width="80.0" height="37.3" rx="33.6" fill="#E0912A" fill-opacity="1.0"/>
    <rect x="80.0" y="269.6" width="80.0" height="37.3" rx="33.6" fill="#E0912A" fill-opacity="1.0"/>
    <rect x="80.0" y="205.1" width="80.0" height="37.3" rx="33.6" fill="#F3A63C" fill-opacity="1.0"/>
    <rect x="80.0" y="140.5" width="80.0" height="37.3" rx="33.6" fill="#E0912A" fill-opacity="0.2"/>
    <rect x="80.0" y="76.0" width="80.0" height="37.3" rx="33.6" fill="#E0912A" fill-opacity="0.2"/>
  <rect x="238" y="76" width="216" height="168" rx="46" fill="#E0912A" fill-opacity="0.10" stroke="#E0912A" stroke-opacity="0.55" stroke-width="7"/>
  <path d="M 298.0 180.0 L 346.0 120.0 L 394.0 180.0" fill="none" stroke="#E0912A" stroke-width="30" stroke-linecap="round" stroke-linejoin="round"/>
  <rect x="238" y="268" width="216" height="168" rx="46" fill="#E0912A" fill-opacity="0.10" stroke="#E0912A" stroke-opacity="0.55" stroke-width="7"/>
  <path d="M 298.0 324.0 L 346.0 384.0 L 394.0 324.0" fill="none" stroke="#E0912A" stroke-width="30" stroke-linecap="round" stroke-linejoin="round"/>
</svg>
